Coordinates
version=1
nRows=16
nColumns=40
inDegrees=yes

Units are S.I. units (second, meters, Newtons, ...)
If the header above contains a line with 'inDegrees', this indicates whether rotational values are in degrees (yes) or radians (no).

endheader
time	pelvis_tilt	pelvis_list	pelvis_rotation	pelvis_tx	pelvis_ty	pelvis_tz	hip_flexion_r	hip_adduction_r	hip_rotation_r	knee_angle_r	knee_angle_r_beta	ankle_angle_r	subtalar_angle_r	mtp_angle_r	hip_flexion_l	hip_adduction_l	hip_rotation_l	knee_angle_l	knee_angle_l_beta	ankle_angle_l	subtalar_angle_l	mtp_angle_l	lumbar_extension	lumbar_bending	lumbar_rotation	arm_flex_r	arm_add_r	arm_rot_r	elbow_flex_r	pro_sup_r	wrist_flex_r	wrist_dev_r	arm_flex_l	arm_add_l	arm_rot_l	elbow_flex_l	pro_sup_l	wrist_flex_l	wrist_dev_l
      4.05000000	    -27.74926948	      2.70014491	      2.33596370	     -0.32587176	      0.77578644	     -1.05087748	     25.29390618	    -10.50048150	     -8.30774424	     95.07101727	      1.65930227	    -21.54052055	      0.00000000	      0.00000000	     73.99593863	      5.10719479	     -8.26620221	     84.93929994	      1.48247045	     28.41108143	      0.00000000	      0.00000000	     -0.75321771	     -6.86947027	     -0.54329191	     89.90352508	    -18.60844682	     19.67676226	     50.15066501	     85.57091781	      0.00000000	      0.00000000	     89.92978572	    -17.97414613	     26.28837199	     48.08733918	     85.01355356	      0.00000000	      0.00000000
      4.05500000	    -27.78291142	      2.72514493	      2.39522383	     -0.32581787	      0.77495082	     -1.05087580	     25.29737054	    -10.49356932	     -8.29641170	     95.10159016	      1.65983587	    -21.47791164	      0.00000000	      0.00000000	     74.10477329	      5.16036605	     -8.29498132	     85.09243722	      1.48514320	     28.46455972	      0.00000000	      0.00000000	     -0.75498910	     -6.91610524	     -0.64362715	     89.90429747	    -18.56760841	     19.61674523	     50.19499754	     85.60022514	      0.00000000	      0.00000000	     89.92983967	    -17.96140596	     26.17740855	     48.03355731	     85.04744996	      0.00000000	      0.00000000
      4.06000000	    -27.85568430	      2.79365124	      2.40305017	     -0.32593540	      0.77407324	     -1.05083123	     25.39443376	    -10.55693805	     -8.24619821	     95.19184272	      1.66141108	    -21.49855522	      0.00000000	      0.00000000	     74.26995629	      5.20884110	     -8.33718333	     85.22223819	      1.48740865	     28.47542333	      0.00000000	      0.00000000	     -0.72379546	     -6.99069491	     -0.67346138	     89.90516223	    -18.50553955	     19.50163288	     50.25410248	     85.61464529	      0.00000000	      0.00000000	     89.93001936	    -17.97922623	     26.11984781	     48.06874406	     85.05382847	      0.00000000	      0.00000000
      4.06500000	    -27.88135013	      2.79884755	      2.41363817	     -0.32599570	      0.77328962	     -1.05073418	     25.41682125	    -10.52563716	     -8.22384734	     95.24382225	      1.66231829	    -21.48121037	      0.00000000	      0.00000000	     74.37227323	      5.21080935	     -8.34241566	     85.36779620	      1.48994912	     28.52508710	      0.00000000	      0.00000000	     -0.72994454	     -7.00585338	     -0.66197267	     89.90564591	    -18.49440911	     19.40730622	     50.29280689	     85.61739431	      0.00000000	      0.00000000	     89.93034086	    -17.93876673	     26.06268466	     48.06989385	     84.96877799	      0.00000000	      0.00000000
      4.07000000	    -27.92478847	      2.75778544	      2.47251725	     -0.32597433	      0.77246496	     -1.05069229	     25.43515135	    -10.49089361	     -8.29977015	     95.27739136	      1.66290418	    -21.48388096	      0.00000000	      0.00000000	     74.49624808	      5.24773405	     -8.28093893	     85.53178507	      1.49281126	     28.58734103	      0.00000000	      0.00000000	     -0.72743459	     -6.96825999	     -0.74436026	     89.90621319	    -18.44949073	     19.35921341	     50.36754235	     85.58838332	      0.00000000	      0.00000000	     89.93067813	    -17.95597792	     26.01907612	     48.08399760	     85.03677766	      0.00000000	      0.00000000
      4.07500000	    -27.99896003	      2.87187885	      2.47289995	     -0.32611575	      0.77165252	     -1.05065404	     25.53960272	    -10.60178788	     -8.22644692	     95.36350258	      1.66440711	    -21.51464532	      0.00000000	      0.00000000	     74.64700394	      5.30078540	     -8.39171436	     85.62939138	      1.49451482	     28.63500113	      0.00000000	      0.00000000	     -0.69462183	     -7.09632337	     -0.74515533	     89.90662709	    -18.41205032	     19.26038479	     50.42343435	     85.62476039	      0.00000000	      0.00000000	     89.93105597	    -17.94989232	     25.97599551	     48.10818694	     85.10433183	      0.00000000	      0.00000000
      4.08000000	    -28.03249645	      2.85080512	      2.50967288	     -0.32618095	      0.77087798	     -1.05055492	     25.55585143	    -10.55367734	     -8.25070116	     95.39821601	      1.66501297	    -21.47787025	      0.00000000	      0.00000000	     74.75830976	      5.31100059	     -8.37948929	     85.77319673	      1.49702469	     28.69068352	      0.00000000	      0.00000000	     -0.69945683	     -7.08149149	     -0.77765845	     89.90749995	    -18.38181743	     19.15888542	     50.48771581	     85.56777633	      0.00000000	      0.00000000	     89.93138207	    -17.91184102	     25.86293816	     48.09307130	     85.01376523	      0.00000000	      0.00000000
      4.08500000	    -28.04085525	      2.83101563	      2.55778650	     -0.32615984	      0.77019395	     -1.05048787	     25.55055632	    -10.52569435	     -8.27753600	     95.40580598	      1.66514544	    -21.66579018	      0.00000000	      0.00000000	     74.84312810	      5.36000725	     -8.31279935	     85.91029986	      1.49941759	     28.72677170	      0.00000000	      0.00000000	     -0.73799775	     -7.06510939	     -0.84695894	     89.90796374	    -18.42645491	     19.37897150	     50.66574436	     84.92102436	      0.00000000	      0.00000000	     89.93194867	    -18.01258291	     26.07697171	     48.24036877	     84.35648740	      0.00000000	      0.00000000
      4.09000000	    -28.12593049	      2.81993384	      2.57559428	     -0.32632305	      0.76937023	     -1.05038109	     25.65636973	    -10.47463965	     -8.26068403	     95.48140502	      1.66646489	    -21.57803905	      0.00000000	      0.00000000	     75.01892498	      5.38260592	     -8.28165242	     86.02906442	      1.50149043	     28.76180470	      0.00000000	      0.00000000	     -0.69518971	     -7.06896605	     -0.86386435	     89.90846903	    -18.30265725	     18.98036363	     50.59641247	     85.73679280	      0.00000000	      0.00000000	     89.93189327	    -17.91921800	     25.77456128	     48.15993838	     85.07130247	      0.00000000	      0.00000000
      4.09500000	    -28.19391321	      2.88608311	      2.57168591	     -0.32635390	      0.76846784	     -1.05031928	     25.73209578	    -10.51177898	     -8.18404120	     95.54605441	      1.66759324	    -21.49618104	      0.00000000	      0.00000000	     75.16471253	      5.41364156	     -8.33844020	     86.17157069	      1.50397763	     28.84571328	      0.00000000	      0.00000000	     -0.64056887	     -7.15047967	     -0.82156594	     89.90877151	    -18.32168493	     18.92484103	     50.65886735	     85.64997803	      0.00000000	      0.00000000	     89.93212717	    -17.82975026	     25.68814208	     48.12205066	     85.03450448	      0.00000000	      0.00000000
      4.10000000	    -28.20995166	      2.82219306	      2.59981055	     -0.32640756	      0.76774912	     -1.05018600	     25.74082983	    -10.41439793	     -8.22022683	     95.57807137	      1.66815204	    -21.51865863	      0.00000000	      0.00000000	     75.26431803	      5.42360743	     -8.24058651	     86.31239688	      1.50643551	     28.87140642	      0.00000000	      0.00000000	     -0.67408919	     -7.08208957	     -0.85953715	     89.90953493	    -18.28127452	     18.84940243	     50.74724538	     85.65419740	      0.00000000	      0.00000000	     89.93246767	    -17.85090502	     25.63013960	     48.17730661	     85.06761996	      0.00000000	      0.00000000
      4.10500000	    -28.26896472	      2.81701258	      2.60623172	     -0.32644017	      0.76700945	     -1.05008986	     25.81198501	    -10.35416952	     -8.19731553	     95.60715543	      1.66865965	    -21.55498226	      0.00000000	      0.00000000	     75.40758938	      5.42075666	     -8.23764171	     86.46384346	      1.50907875	     28.92737779	      0.00000000	      0.00000000	     -0.64337730	     -7.08971281	     -0.86068167	     89.91002152	    -18.26560962	     18.80055351	     50.77127761	     85.66227951	      0.00000000	      0.00000000	     89.93274665	    -17.83143918	     25.57286997	     48.18365505	     85.12337560	      0.00000000	      0.00000000
      4.11000000	    -28.31840363	      2.83162601	      2.61531749	     -0.32654528	      0.76622633	     -1.04996367	     25.87229040	    -10.32855067	     -8.16207658	     95.67773809	      1.66989155	    -21.48727673	      0.00000000	      0.00000000	     75.54380548	      5.43226684	     -8.24694435	     86.59406867	      1.51135161	     28.96035049	      0.00000000	      0.00000000	     -0.62716484	     -7.11518909	     -0.85751275	     89.91035951	    -18.24075981	     18.69762944	     50.80855098	     85.72485878	      0.00000000	      0.00000000	     89.93295556	    -17.79671012	     25.49663096	     48.21887107	     85.17417037	      0.00000000	      0.00000000
      4.11500000	    -28.35790030	      2.88683778	      2.65365563	     -0.32654251	      0.76552627	     -1.04994733	     25.90911020	    -10.37042666	     -8.13775080	     95.71598300	      1.67055905	    -21.57047456	      0.00000000	      0.00000000	     75.65237386	      5.51324665	     -8.26315399	     86.70641918	      1.51331250	     29.00672342	      0.00000000	      0.00000000	     -0.63417340	     -7.18320875	     -0.91883211	     89.91066777	    -18.19397635	     18.62377774	     50.89004346	     85.71631428	      0.00000000	      0.00000000	     89.93328873	    -17.81356390	     25.42274485	     48.23475764	     85.16644214	      0.00000000	      0.00000000
      4.12000000	    -28.42446143	      2.83682080	      2.62310222	     -0.32658833	      0.76473284	     -1.04977960	     26.00860734	    -10.24707385	     -8.08537463	     95.73750832	      1.67093474	    -21.76193069	      0.00000000	      0.00000000	     75.78976144	      5.44833025	     -8.24089642	     86.85149819	      1.51584460	     29.16449667	      0.00000000	      0.00000000	     -0.57902633	     -7.13018596	     -0.87999978	     89.91199221	    -18.25301945	     19.01832234	     50.97634543	     83.73811593	      0.00000000	      0.00000000	     89.93360091	    -17.88047730	     25.76246888	     48.38480041	     83.13624086	      0.00000000	      0.00000000
      4.12500000	    -28.49856406	      2.80994990	      2.60279475	     -0.32671373	      0.76386758	     -1.04962628	     26.09282147	    -10.17467185	     -8.05836407	     95.79451414	      1.67192968	    -21.54197131	      0.00000000	      0.00000000	     75.96201897	      5.44312431	     -8.16940505	     87.00302638	      1.51848927	     29.13820842	      0.00000000	      0.00000000	     -0.52336969	     -7.10643482	     -0.82941019	     89.91153290	    -18.15844402	     18.45962196	     50.92609443	     85.80358215	      0.00000000	      0.00000000	     89.93378018	    -17.72836205	     25.26000030	     48.23186892	     85.18217170	      0.00000000	      0.00000000
